# xmcd CD database file
#
# Track frame offsets:
#	150
#	15795
#	33014
#	54410
#	70392
#	88163
#	105186
#	123772
#	145484
#	161550
#	176765
#	190440
#	209336
#	224567
#	237680
#	253171
#
# Disc length: 3585 seconds
#
# Revision: 1
# Processed by: cddbd v1.5.1PL0 Copyright (c) Steve Scherf et al.
# Submitted via: CDex 1.51
#
DISCID=e50dff10
DTITLE=St. Louis Stompers - Play That Thing!
DYEAR=2004
DGENRE=Jazz
TTITLE0=Dippermouth Blues
TTITLE1=East St Louis Toodle-oo
TTITLE2=Saint Louis Stomp
TTITLE3=Swing That Music
TTITLE4=West End Blues
TTITLE5=Down in Honky Tonk Town
TTITLE6=Petite Fleur
TTITLE7=Snake Rag
TTITLE8=I'm Coming Virginia
TTITLE9=The Chant
TTITLE10=Coney Island Washboard
TTITLE11=Willow Tree
TTITLE12=Yama Yama Man
TTITLE13=Little Lawrence
TTITLE14=I'll be a Friend with Pleasure
TTITLE15=Sentimental Gentleman from Georgia
EXTD=YEAR: 2004
EXTT0=
EXTT1=
EXTT2=
EXTT3=
EXTT4=
EXTT5=
EXTT6=
EXTT7=
EXTT8=
EXTT9=
EXTT10=
EXTT11=
EXTT12=
EXTT13=
EXTT14=
EXTT15=
PLAYORDER=
